<svg width="132" height="40" viewBox="0 0 132 40" fill="none" xmlns="http://www.w3.org/2000/svg">
<path d="M2.25584 31.045V9.02407H5.23164L6.51594 13.2842V31.045H2.25584ZM17.4794 31.045L4.41721 14.1299L5.23164 9.02407L18.2939 25.9392L17.4794 31.045ZM17.4794 31.045L16.2578 26.9102V9.02407H20.5492V31.045H17.4794ZM30.4027 31.3583C29.0662 31.3583 27.8758 31.0764 26.8317 30.5125C25.8084 29.9487 25.0044 29.1656 24.4197 28.1632C23.835 27.1608 23.5426 26.0018 23.5426 24.6862V15.9154H27.6774V24.5922C27.6774 25.2187 27.7819 25.7617 27.9907 26.2211C28.1995 26.6596 28.5128 26.9938 28.9304 27.2235C29.3481 27.4532 29.8388 27.568 30.4027 27.568C31.2589 27.568 31.9271 27.307 32.4074 26.7849C32.8877 26.2629 33.1279 25.532 33.1279 24.5922V15.9154H37.2314V24.6862C37.2314 26.0227 36.939 27.1922 36.3543 28.1945C35.7904 29.1969 34.9864 29.98 33.9423 30.5439C32.919 31.0868 31.7392 31.3583 30.4027 31.3583ZM42.0966 31.045V9.61924H46.2001V31.045H42.0966ZM38.557 19.5177V15.9154H49.7398V19.5177H38.557ZM51.421 31.045V15.9154H55.5245V31.045H51.421ZM55.5245 22.6815L53.9269 21.6164C54.1149 19.7579 54.6578 18.2961 55.5558 17.231C56.4538 16.1451 57.7485 15.6022 59.44 15.6022C60.1709 15.6022 60.8287 15.7275 61.4135 15.9781C61.9982 16.2078 62.5307 16.5941 63.011 17.1371L60.4424 20.0815C60.2127 19.831 59.9308 19.643 59.5966 19.5177C59.2834 19.3924 58.918 19.3298 58.5003 19.3298C57.6232 19.3298 56.9028 19.6117 56.3389 20.1755C55.796 20.7185 55.5245 21.5538 55.5245 22.6815ZM63.8259 31.045V15.9154H67.9607V31.045H63.8259ZM65.8933 13.4721C65.2251 13.4721 64.6717 13.2529 64.2331 12.8143C63.7946 12.3549 63.5753 11.7911 63.5753 11.1228C63.5753 10.4754 63.7946 9.92204 64.2331 9.46261C64.6717 9.00319 65.2251 8.77348 65.8933 8.77348C66.5824 8.77348 67.1358 9.00319 67.5535 9.46261C67.992 9.92204 68.2113 10.4754 68.2113 11.1228C68.2113 11.7911 67.992 12.3549 67.5535 12.8143C67.1358 13.2529 66.5824 13.4721 65.8933 13.4721ZM69.779 31.045L78.6438 9.02407H82.1208L90.9542 31.045H86.4122L79.5835 12.9709H81.1497L74.227 31.045H69.779ZM74.4776 26.9416V23.3706H86.3182V26.9416H74.4776ZM92.9286 31.045V9.02407H97.1887V31.045H92.9286Z" fill="#272727" style="fill:#272727;fill:color(display-p3 0.1516 0.1516 0.1516);fill-opacity:1;"/>
<path d="M115.368 32.3968C110.381 36.2599 103.22 32.1254 104.072 25.8748L104.667 21.505C104.759 20.831 104.759 20.1476 104.667 19.4736L104.072 15.1038C103.22 8.85315 110.381 4.71873 115.368 8.58183L118.855 11.2825C119.393 11.6991 119.984 12.0408 120.614 12.2982L124.696 13.9673C130.535 16.3549 130.535 24.6237 124.696 27.0112L120.614 28.6804C119.984 28.9378 119.393 29.2795 118.855 29.6961L115.368 32.3968Z" fill="url(#paint0_linear_200_970)" stroke="url(#paint1_linear_200_970)" style="" stroke-width="0.475118"/>
<defs>
<linearGradient id="paint0_linear_200_970" x1="105.189" y1="9.70006" x2="120.948" y2="35.3398" gradientUnits="userSpaceOnUse">
<stop stop-color="#85A3FF" style="stop-color:#85A3FF;stop-color:color(display-p3 0.5200 0.6376 1.0000);stop-opacity:1;"/>
<stop offset="0.505" stop-color="#466AD9" style="stop-color:#466AD9;stop-color:color(display-p3 0.2745 0.4157 0.8510);stop-opacity:1;"/>
<stop offset="1" stop-color="#2D458C" style="stop-color:#2D458C;stop-color:color(display-p3 0.1774 0.2687 0.5500);stop-opacity:1;"/>
</linearGradient>
<linearGradient id="paint1_linear_200_970" x1="103.755" y1="12.1838" x2="122.655" y2="33.0349" gradientUnits="userSpaceOnUse">
<stop stop-color="white" style="stop-color:white;stop-opacity:1;"/>
<stop offset="1" stop-color="#999999" style="stop-color:#999999;stop-color:color(display-p3 0.6000 0.6000 0.6000);stop-opacity:1;"/>
</linearGradient>
</defs>
</svg>
