<svg width="187" height="57" viewBox="0 0 187 57" fill="none" xmlns="http://www.w3.org/2000/svg">
<path d="M3.18974 44V12.8557H7.39842L9.2148 18.8808V44H3.18974ZM24.7205 44L6.24657 20.077L7.39842 12.8557L25.8723 36.7788L24.7205 44ZM24.7205 44L22.9927 38.1521V12.8557H29.0621V44H24.7205ZM42.9978 44.443C41.1076 44.443 39.4241 44.0443 37.9474 43.2469C36.5002 42.4494 35.3631 41.3419 34.5361 39.9242C33.7092 38.5066 33.2957 36.8674 33.2957 35.0067V22.6022H39.1435V34.8738C39.1435 35.7598 39.2912 36.5277 39.5865 37.1775C39.8819 37.7977 40.3249 38.2703 40.9156 38.5952C41.5063 38.92 42.2004 39.0825 42.9978 39.0825C44.2087 39.0825 45.1538 38.7133 45.8331 37.9749C46.5124 37.2366 46.8521 36.2029 46.8521 34.8738V22.6022H52.6556V35.0067C52.6556 36.8969 52.2421 38.5509 51.4152 39.9685C50.6177 41.3862 49.4806 42.4937 48.0039 43.2912C46.5567 44.0591 44.888 44.443 42.9978 44.443ZM59.5366 44V13.6975H65.3402V44H59.5366ZM54.5305 27.6969V22.6022H70.3463V27.6969H54.5305ZM72.724 44V22.6022H78.5276V44H72.724ZM78.5276 32.1714L76.2682 30.6651C76.534 28.0365 77.3019 25.9691 78.5719 24.4628C79.8419 22.927 81.673 22.1591 84.0653 22.1591C85.0991 22.1591 86.0294 22.3364 86.8564 22.6908C87.6833 23.0156 88.4365 23.562 89.1158 24.3299L85.483 28.4943C85.1581 28.1399 84.7594 27.8741 84.2869 27.6969C83.8438 27.5197 83.327 27.4311 82.7363 27.4311C81.4958 27.4311 80.4769 27.8298 79.6794 28.6272C78.9115 29.3951 78.5276 30.5765 78.5276 32.1714ZM90.2683 44V22.6022H96.1162V44H90.2683ZM93.1922 19.1466C92.2471 19.1466 91.4645 18.8365 90.8442 18.2163C90.224 17.5665 89.9139 16.7691 89.9139 15.824C89.9139 14.9084 90.224 14.1257 90.8442 13.476C91.4645 12.8262 92.2471 12.5013 93.1922 12.5013C94.1669 12.5013 94.9495 12.8262 95.5402 13.476C96.1605 14.1257 96.4706 14.9084 96.4706 15.824C96.4706 16.7691 96.1605 17.5665 95.5402 18.2163C94.9495 18.8365 94.1669 19.1466 93.1922 19.1466ZM98.6877 44L111.225 12.8557H116.143L128.636 44H122.212L112.554 18.4378H114.769L104.979 44H98.6877ZM105.333 38.1964V33.146H122.079V38.1964H105.333ZM131.428 44V12.8557H137.453V44H131.428Z" fill="#272727" style="fill:#272727;fill:color(display-p3 0.1516 0.1516 0.1516);fill-opacity:1;"/>
<path d="M163.37 46.0206C156.079 51.6684 145.609 45.624 146.855 36.4857L147.697 30.3054C147.823 29.3823 147.823 28.4463 147.697 27.5232L146.855 21.3429C145.609 12.2046 156.079 6.16017 163.37 11.8079L168.301 15.6275C169.038 16.1981 169.848 16.6661 170.711 17.0187L176.484 19.3793C185.021 22.8698 185.021 34.9587 176.484 38.4493L170.711 40.8099C169.848 41.1625 169.038 41.6305 168.301 42.201L163.37 46.0206Z" fill="url(#paint0_linear_193_597)" style=""/>
<defs>
<linearGradient id="paint0_linear_193_597" x1="148.768" y1="13.6551" x2="171.056" y2="49.9173" gradientUnits="userSpaceOnUse">
<stop stop-color="#85A3FF" style="stop-color:#85A3FF;stop-color:color(display-p3 0.5200 0.6376 1.0000);stop-opacity:1;"/>
<stop offset="0.505" stop-color="#466AD9" style="stop-color:#466AD9;stop-color:color(display-p3 0.2745 0.4157 0.8510);stop-opacity:1;"/>
<stop offset="1" stop-color="#2D458C" style="stop-color:#2D458C;stop-color:color(display-p3 0.1774 0.2687 0.5500);stop-opacity:1;"/>
</linearGradient>
</defs>
</svg>
