<svg width="132" height="40" viewBox="0 0 132 40" fill="none" xmlns="http://www.w3.org/2000/svg">
<path d="M2.25535 31V8.97903H5.23116L6.51545 13.2391V31H2.25535ZM17.4789 31L4.41672 14.0849L5.23116 8.97903L18.2934 25.8941L17.4789 31ZM17.4789 31L16.2573 26.8652V8.97903H20.5487V31H17.4789ZM30.4022 31.3132C29.0657 31.3132 27.8753 31.0313 26.8312 30.4675C25.8079 29.9037 25.004 29.1205 24.4192 28.1182C23.8345 27.1158 23.5422 25.9568 23.5422 24.6412V15.8704H27.677V24.5472C27.677 25.1737 27.7814 25.7166 27.9902 26.1761C28.199 26.6146 28.5123 26.9487 28.9299 27.1784C29.3476 27.4081 29.8383 27.523 30.4022 27.523C31.2584 27.523 31.9266 27.262 32.4069 26.7399C32.8872 26.2178 33.1274 25.4869 33.1274 24.5472V15.8704H37.2309V24.6412C37.2309 25.9777 36.9385 27.1471 36.3538 28.1495C35.7899 29.1519 34.986 29.935 33.9418 30.4988C32.9186 31.0418 31.7387 31.3132 30.4022 31.3132ZM42.0962 31V9.57419H46.1996V31H42.0962ZM38.5565 19.4727V15.8704H49.7393V19.4727H38.5565ZM51.4205 31V15.8704H55.524V31H51.4205ZM55.524 22.6364L53.9265 21.5714C54.1144 19.7128 54.6574 18.251 55.5553 17.186C56.4533 16.1001 57.748 15.5571 59.4395 15.5571C60.1704 15.5571 60.8282 15.6824 61.413 15.933C61.9977 16.1627 62.5302 16.5491 63.0105 17.092L60.4419 20.0365C60.2122 19.7859 59.9303 19.598 59.5962 19.4727C59.2829 19.3474 58.9175 19.2847 58.4998 19.2847C57.6227 19.2847 56.9023 19.5666 56.3384 20.1305C55.7955 20.6734 55.524 21.5087 55.524 22.6364ZM63.8254 31V15.8704H67.9602V31H63.8254ZM65.8928 13.4271C65.2246 13.4271 64.6712 13.2078 64.2326 12.7693C63.7941 12.3098 63.5748 11.746 63.5748 11.0778C63.5748 10.4304 63.7941 9.87699 64.2326 9.41757C64.6712 8.95815 65.2246 8.72844 65.8928 8.72844C66.582 8.72844 67.1354 8.95815 67.553 9.41757C67.9916 9.87699 68.2108 10.4304 68.2108 11.0778C68.2108 11.746 67.9916 12.3098 67.553 12.7693C67.1354 13.2078 66.582 13.4271 65.8928 13.4271ZM69.7785 31L78.6433 8.97903H82.1203L90.9537 31H86.4117L79.583 12.9259H81.1492L74.2265 31H69.7785ZM74.4771 26.8965V23.3256H86.3177V26.8965H74.4771ZM92.9281 31V8.97903H97.1882V31H92.9281Z" fill="#272727" style="fill:#272727;fill:color(display-p3 0.1516 0.1516 0.1516);fill-opacity:1;"/>
<path d="M115.368 32.3517C110.381 36.2148 103.22 32.0804 104.071 25.8298L104.667 21.4599C104.759 20.7859 104.759 20.1026 104.667 19.4285L104.071 15.0587C103.219 8.80811 110.381 4.67369 115.368 8.53678L118.854 11.2375C119.392 11.654 119.984 11.9957 120.614 12.2532L124.696 13.9223C130.535 16.3098 130.535 24.5787 124.696 26.9662L120.614 28.6353C119.984 28.8928 119.392 29.2345 118.854 29.651L115.368 32.3517Z" fill="url(#paint0_linear_193_595)" stroke="url(#paint1_linear_193_595)" style="" stroke-width="0.475118"/>
<defs>
<linearGradient id="paint0_linear_193_595" x1="105.189" y1="9.65502" x2="120.948" y2="35.2947" gradientUnits="userSpaceOnUse">
<stop stop-color="#85A3FF" style="stop-color:#85A3FF;stop-color:color(display-p3 0.5200 0.6376 1.0000);stop-opacity:1;"/>
<stop offset="0.505" stop-color="#466AD9" style="stop-color:#466AD9;stop-color:color(display-p3 0.2745 0.4157 0.8510);stop-opacity:1;"/>
<stop offset="1" stop-color="#2D458C" style="stop-color:#2D458C;stop-color:color(display-p3 0.1774 0.2687 0.5500);stop-opacity:1;"/>
</linearGradient>
<linearGradient id="paint1_linear_193_595" x1="103.755" y1="12.1387" x2="122.655" y2="32.9898" gradientUnits="userSpaceOnUse">
<stop stop-color="white" style="stop-color:white;stop-opacity:1;"/>
<stop offset="1" stop-color="#999999" style="stop-color:#999999;stop-color:color(display-p3 0.6000 0.6000 0.6000);stop-opacity:1;"/>
</linearGradient>
</defs>
</svg>
