<svg width="278" height="84" viewBox="0 0 278 84" fill="none" xmlns="http://www.w3.org/2000/svg">
<path d="M4.83396 66V19.6515H11.0973L13.8004 28.618V66H4.83396ZM36.8757 66L9.3831 30.398L11.0973 19.6515L38.5899 55.2535L36.8757 66ZM36.8757 66L34.3045 57.2973V19.6515H43.3368V66H36.8757ZM64.0758 66.6593C61.2628 66.6593 58.7575 66.0659 56.5598 64.8792C54.4061 63.6925 52.7139 62.0442 51.4832 59.9345C50.2525 57.8247 49.6372 55.3853 49.6372 52.6163V34.156H58.3399V52.4185C58.3399 53.7371 58.5597 54.8799 58.9992 55.8469C59.4387 56.7699 60.098 57.4731 60.9771 57.9566C61.8561 58.4401 62.889 58.6818 64.0758 58.6818C65.8778 58.6818 67.2843 58.1324 68.2953 57.0336C69.3062 55.9348 69.8116 54.3964 69.8116 52.4185V34.156H78.4484V52.6163C78.4484 55.4293 77.8331 57.8907 76.6024 60.0004C75.4157 62.1102 73.7235 63.7584 71.5258 64.9451C69.3721 66.0879 66.8888 66.6593 64.0758 66.6593ZM88.6886 66V20.9042H97.3254V66H88.6886ZM81.2386 41.7379V34.156H104.775V41.7379H81.2386ZM108.314 66V34.156H116.951V66H108.314ZM116.951 48.3968L113.588 46.1552C113.984 42.2434 115.127 39.1667 117.017 36.9251C118.907 34.6395 121.632 33.4967 125.192 33.4967C126.73 33.4967 128.115 33.7605 129.345 34.2879C130.576 34.7714 131.697 35.5845 132.708 36.7273L127.302 42.9247C126.818 42.3972 126.225 42.0016 125.522 41.7379C124.862 41.4742 124.093 41.3424 123.214 41.3424C121.368 41.3424 119.852 41.9357 118.665 43.1225C117.522 44.2652 116.951 46.0234 116.951 48.3968ZM134.423 66V34.156H143.126V66H134.423ZM138.774 29.0135C137.368 29.0135 136.203 28.552 135.28 27.629C134.357 26.662 133.896 25.4753 133.896 24.0688C133.896 22.7063 134.357 21.5415 135.28 20.5745C136.203 19.6076 137.368 19.1241 138.774 19.1241C140.225 19.1241 141.39 19.6076 142.269 20.5745C143.192 21.5415 143.653 22.7063 143.653 24.0688C143.653 25.4753 143.192 26.662 142.269 27.629C141.39 28.552 140.225 29.0135 138.774 29.0135ZM146.953 66L165.611 19.6515H172.929L191.521 66H181.961L167.589 27.9587H170.885L156.315 66H146.953ZM156.842 57.3632V49.8473H181.764V57.3632H156.842ZM195.677 66V19.6515H204.643V66H195.677Z" fill="#272727" style="fill:#272727;fill:color(display-p3 0.1516 0.1516 0.1516);fill-opacity:1;"/>
<path d="M243.214 68.4872C232.363 76.8922 216.783 67.8969 218.636 54.2974L219.89 45.1001C220.077 43.7262 220.077 42.3334 219.89 40.9595L218.636 31.7622C216.783 18.1627 232.363 9.16742 243.214 17.5724L250.552 23.2566C251.648 24.1057 252.855 24.8021 254.138 25.3269L262.73 28.84C275.434 34.0345 275.434 52.0251 262.73 57.2196L254.138 60.7327C252.855 61.2574 251.648 61.9539 250.552 62.803L243.214 68.4872Z" fill="url(#paint0_linear_210_135)" style=""/>
<defs>
<linearGradient id="paint0_linear_210_135" x1="221.484" y1="20.3212" x2="254.653" y2="74.2862" gradientUnits="userSpaceOnUse">
<stop stop-color="#85A3FF" style="stop-color:#85A3FF;stop-color:color(display-p3 0.5200 0.6376 1.0000);stop-opacity:1;"/>
<stop offset="0.505" stop-color="#466AD9" style="stop-color:#466AD9;stop-color:color(display-p3 0.2745 0.4157 0.8510);stop-opacity:1;"/>
<stop offset="1" stop-color="#2D458C" style="stop-color:#2D458C;stop-color:color(display-p3 0.1774 0.2687 0.5500);stop-opacity:1;"/>
</linearGradient>
</defs>
</svg>
